<?xml version="1.0" encoding="utf-8"?>
<!-- Generator: Adobe Illustrator 22.1.0, SVG Export Plug-In . SVG Version: 6.00 Build 0)  -->
<svg version="1.1" id="Calque_1" xmlns="http://www.w3.org/2000/svg" xmlns:xlink="http://www.w3.org/1999/xlink" x="0px" y="0px"
	 viewBox="0 0 448.6 148.1" style="enable-background:new 0 0 448.6 148.1;" xml:space="preserve">
<style type="text/css">
	.st0{fill:#FFFFFF;}
</style>
<g>
	<g>
		<path class="st0" d="M35.1,28.9c5.2,0,9.2,0.5,12,1.4c3.8,1.2,7.2,3.4,10,6.7c2.1,2.6,3.7,5.5,4.8,8.7s1.7,6.5,1.7,9.8
			c0,7.1-2.2,13.2-6.5,18.6c-4.6,5.4-10.2,8.1-16.8,8.1H38c3.5,1.4,6.3,3.4,8.5,6c1.7,2,3.8,5.8,6.5,11.3c2.2,4.6,4.1,8,5.6,10.2
			c1.8,2.4,3.4,4,4.8,4.8c1.8,1.2,4.2,1.6,7,1.4c1-0.2,1.6,0,1.8,0.4c0.1,0.2,0,0.5-0.1,0.8s-0.4,0.6-1,1c-2.2,1.5-4.6,2.3-7.3,2.5
			c-4.1,0.3-7.9-0.6-11.3-2.6c-2.7-1.7-5.5-4.3-8.1-7.8c-1-1.4-2-3-3-4.7c-1-1.8-1.9-3.7-3-5.8c-0.4-0.6-0.7-1.4-1.1-2.3
			s-0.8-1.9-1.2-3.1c-1.1-2.6-1.9-4.4-2.5-5.4c-1.2-2.5-2.6-4.2-4.3-5.2c-1.7-0.9-3.9-1.4-6.5-1.4h-9.2v26.3c0,2.7-0.4,4.9-1.2,6.6
			c-1.6,2.7-4.2,4.1-7.8,4.1H1.2c-0.8,0-1.2-0.4-1.2-1.2V38.6c0-2.4,0.4-4.4,1.2-5.9c1.6-2.4,4.2-3.6,7.8-3.6h26.1V28.9z M13.6,36.9
			v37.4h13.1c1.3-0.1,2.5-0.2,3.7-0.3c1.2-0.1,2.3-0.2,3.3-0.4c3.2-0.4,6.4-1.5,9.6-3.3c1.7-0.9,3.1-1.9,4.5-3.1
			c1.3-1.1,2.5-2.4,3.5-3.6c1.6-2.1,2.6-4.4,3.2-7c0.5-2.6,0.4-5.1-0.1-7.6c-0.5-2.3-1.5-4.3-2.7-6c-1.3-1.6-2.7-2.8-4.4-3.7
			c-0.7-0.5-1.6-0.8-2.5-1.2c-1-0.3-2-0.6-3.1-0.8c-1.8-0.3-4-0.4-6.5-0.4H13.6z"/>
		<path class="st0" d="M111.9,27.5c1.1,0,1.9,0.6,2.3,1.7l29.7,88.1c0.3,0.6,0.3,1.1,0.1,1.4c-0.2,0.3-0.6,0.4-1.2,0.4h-4.7
			c-2.7,0-4.7-0.4-6.2-1.2c-1.9-1.1-3.4-3.1-4.4-6l-5.8-17.2c-1,1.6-2.3,2.7-4,3.2c-1.6,0.5-3.2,0.7-5,0.7H98.6
			c-1.7,0-3.4-0.2-4.9-0.7c-1.7-0.5-3-1.6-4-3.2l-7.7,23c-0.2,0.5-0.5,0.8-0.8,1.1c-0.3,0.3-0.8,0.4-1.5,0.4h-2.9
			c-1.5,0-2.5-0.8-3-2.3c-0.5-1.7-0.4-3.3,0.3-5.1L99,38.1c0.4-0.9,0.7-1.7,1-2.5c0.3-0.7,0.5-1.3,0.8-1.8c0.5-1.2,1.2-2.3,2.1-3.3
			c0.8-0.9,1.9-1.6,3.2-2.1c1.2-0.5,2.7-0.8,4.5-0.8h1.3V27.5z M108.8,55.7c-0.4-0.8-0.7-1.6-0.9-2.3c-0.2-0.7-0.4-1.4-0.6-2.1
			c-0.2-0.7-0.4-1.5-0.5-2.4c-0.2-0.9-0.4-1.9-0.5-3L91.2,90.6h29.4L108.8,55.7z"/>
		<path class="st0" d="M169.8,111.3h23.5c2.5,0,4.5,0.4,6.2,1.1c1.9,1,2.9,2.5,2.9,4.4v1.1c0,0.8-0.4,1.2-1.2,1.2h-36
			c-3.7,0-6.3-1.2-7.8-3.6c-0.8-1.4-1.2-3.3-1.2-5.9V30.1c0-0.8,0.4-1.2,1.2-1.2h3.4c3.7,0,6.3,1.2,7.8,3.6c0.8,1.6,1.2,3.5,1.2,5.9
			V111.3z"/>
	</g>
	<g>
		<path class="st0" d="M207.3,61.5c5.4,0,13.3-24.3,13.3-41.4c0-9.2-2.3-16.4-8.6-16.4c-4.6,0-11.4,4-21.1,13.9
			c-8.4,8.7-35,35.3-47.5,69.2c-4.4,12-7.5,23.6-7.5,33.8c0,6.9,1.4,13.1,4.8,18.3c2.9,4.5,7,6.4,12,6.4c28,0,82.1-61.2,83.4-63.1
			c0.8-0.9,1.5-1.2,2.1-1.2c0.9,0,1.4,0.7,1.4,1.8c0,0.2,0,0.4-0.1,0.7c-0.2,0.2-56.3,64.6-86.5,64.6c-5.6,0-10.3-2.2-13.6-7.3
			c-4-6.2-5.6-13.5-5.6-21.6c0-10.3,2.7-21.7,7-33.3c12.7-34.2,37.4-60.9,46-69.7C198,4.7,206.3,0,212,0c8,0,11.3,9,11.3,21.3
			c0,12.6-3.4,28.7-8.7,41.7c-0.5,1.9-2.9,3.1-5,3.1c-1.8,0-3.5-1-3.5-2.9c0-0.6,0.1-1.2,0.4-2C206.7,61.4,207,61.5,207.3,61.5z"/>
		<path class="st0" d="M243.3,73.8c-0.1-0.4-0.1-0.7-0.1-1c0-0.6,0.2-1,0.7-1.4c0.4-0.3,0.7-0.4,1.2-0.4c0.2,0,0.4,0.1,0.7,0.1
			c1.2,0.5,2.1,1.7,2.6,3.7c1.7,1.8,4.1,3.4,9,3.7c2.6,0.2,4.9,0.3,7,0.3c7.7,0,11.7-1.2,11.7-1.2h0.4c0.8,0,1.2,0.7,1.2,1.4
			c0,0.7-0.4,1.5-1,1.7c0,0-2.9,0.6-8.9,0.6c-2.6,0-5.9-0.1-9.7-0.4c-4-0.4-6.6-1-8.9-2.1c-0.1,6.3-2.4,16.2-7.9,20.1
			c-1,0.7-2.3,1.1-3.4,1.1c-0.6,0-1.2-0.1-1.6-0.3c-2.1-0.9-2.9-3-2.9-5.5c0-3.4,1.3-7.3,2.2-9.3c1.2-2.6,5.1-9,7.9-10.8
			C243.3,74,243.3,73.8,243.3,73.8z M238.1,86.4c-0.4,1-1.8,5.1-1.8,7.8c0,1.2,0.2,2.2,1,2.5c0.1,0.1,0.3,0.1,0.4,0.1
			c3.4,0,7.7-15.8,7.7-19.8v-0.4c-0.2-0.1-0.4-0.3-0.5-0.4C242.2,78.2,239.4,83.3,238.1,86.4z"/>
		<path class="st0" d="M270,118.5c0,2.3,0.3,4,0.8,5.1c0.7,1.5,1.8,2.3,3.2,2.3c10.8,0,38.4-44.4,38.5-44.5c0.7-1.1,1.5-1.5,2.2-1.5
			c0.8,0,1.4,0.6,1.4,1.6v0.1c-0.1,0.1-29,45.4-42.3,45.4c-2,0-3.6-1-4.8-3.4c-0.7-1.5-1-4-1-6.9c0-19.2,14.2-63.5,24-76.9
			c2.3-4,4.7-7.4,6.7-9.8c2.3-2.6,4.3-4,6-4h0.1c1.2,0.1,2.2,0.9,2.8,2.4c0.3,0.8,0.4,1.8,0.4,2.9c0,13.2-20.9,44.2-29.8,50.1
			C272.7,98.7,270,111.4,270,118.5z M305.2,30.2c0-0.4-0.1-0.7-0.1-0.9c-0.2-0.4-0.4-0.7-0.5-0.7h-0.1c-0.7,0-2.1,1.2-3.7,3.1
			c-1.9,2.2-4.1,5.4-6.4,9.3c-4.5,7.8-10.4,24-13.9,33.7C285,70.5,305.2,38,305.2,30.2z"/>
		<path class="st0" d="M319,73.8c-0.1-0.4-0.1-0.7-0.1-1c0-0.6,0.2-1,0.7-1.4c0.4-0.3,0.7-0.4,1.2-0.4c0.2,0,0.4,0.1,0.7,0.1
			c1.2,0.5,2.1,1.7,2.6,3.7c1.7,1.8,4.1,3.4,9,3.7c2.6,0.2,4.9,0.3,7,0.3c7.7,0,11.7-1.2,11.7-1.2h0.4c0.8,0,1.2,0.7,1.2,1.4
			c0,0.7-0.4,1.5-1,1.7c0,0-2.9,0.6-8.9,0.6c-2.6,0-5.9-0.1-9.7-0.4c-4-0.4-6.6-1-8.9-2.1c-0.1,6.3-2.4,16.2-7.9,20.1
			c-1,0.7-2.3,1.1-3.4,1.1c-0.6,0-1.2-0.1-1.6-0.3c-2.1-0.9-2.9-3-2.9-5.5c0-3.4,1.3-7.3,2.2-9.3c1.2-2.6,5.1-9,7.9-10.8
			C319.1,74,319,73.8,319,73.8z M313.8,86.4c-0.4,1-1.8,5.1-1.8,7.8c0,1.2,0.2,2.2,1,2.5c0.1,0.1,0.3,0.1,0.4,0.1
			c3.4,0,7.7-15.8,7.7-19.8v-0.4c-0.2-0.1-0.4-0.3-0.5-0.4C318,78.2,315.1,83.3,313.8,86.4z"/>
		<path class="st0" d="M353.8,81.4c2.9-6.1,7-10,10.6-10c1.5,0,2.9,0.7,4.1,2.3c2.7,6,13.6,7.1,21.7,7.1c3.6,0,6.7-0.2,8.2-0.3
			c0.9-0.1,1.5-0.7,1.7-0.7c0.3-0.1,0.6-0.1,0.7-0.1c0.4,0,0.6,0.2,0.6,0.4c0,0.5-0.5,1.2-1.1,1.4c-0.4,0.4-5.9,1.2-12.5,1.2
			c-8,0-17.5-1.3-21.1-6.5c-0.4-0.6-1-0.9-1.5-0.9c-5.2,0-14.8,23-14.9,23v0.1c0,0.9-1,1.2-2.1,1.2c-1.3,0-2.8-0.5-2.8-1.2
			c0-0.1,0.1-0.2,0.1-0.3l6.2-26.1c0.5-1.4,1.7-1.9,2.9-1.9c1.4,0,2.8,0.8,2.8,2.1v0.1L353.8,81.4z"/>
		<path class="st0" d="M413.8,69c0-0.4-0.1-0.7-0.6-0.7c-0.4,0-0.9,0.1-1.5,0.5c-1.5,0.7-4,3-6.3,6c-1.5,2.1-2.1,4-2.1,5.8
			c0,4.8,4.3,9.1,7.8,14.8c6.7-4.8,12.5-8.4,20-12.1c4.3-2.1,9.8-4.8,14.9-6.7c1.7,0.1,2.6,1.5,2.6,2.9c0,0.8-0.4,1.6-1.1,2.1
			c-5.1,0.6-9.5,2.6-13.7,4.6c-7.6,3.7-14.6,6.8-21.4,11.8c1.3,2.4,1.9,5.3,1.9,8.1c0,11-8.3,23.5-18.1,23.5c-1,0-1.9-0.1-2.9-0.4
			c-2.9-0.7-4.1-3.5-4.1-6.5c0-1.1,0.2-2.2,0.5-3.2c1.5-4.9,7.7-13.4,20.1-22.7c-2.8-4.7-10.3-10.6-10.3-17.5c0-2.1,0.7-4.2,2.3-6.5
			c2.7-3.7,7-5.9,8.6-6.7c1.7-0.7,3-1,4-1c2,0,2.9,1.1,3.1,2.9c0.1,0.4,0.1,0.7,0.1,1.2c0,4.5-2.4,10.1-2.4,10.2
			c-0.6,0.8-1.5,1.1-2.5,1.1c-1.5,0-3.2-1-3.2-2.6c0-0.2,0-0.4,0.1-0.7C409.6,77.1,413.8,71,413.8,69z M392.5,120.4
			c-0.2,0.7-0.4,1.5-0.4,2.2c0,1.2,0.4,2.3,1.8,2.6c0.7,0.2,1.3,0.3,2.1,0.3c7.9,0,15.8-12,15.8-21.3c0-1.9-0.3-3.7-1-5.2
			C399.8,107.6,393.9,116.1,392.5,120.4z"/>
	</g>
</g>
</svg>
